{
  "accessors": [
    {
      "bufferView": 2,
      "componentType": 5126,
      "count": 2254,
      "max": [
        306.43792724609375,
        219.41278076171875,
        356.28973388671875
      ],
      "min": [
        138.60293579101562,
        45.238746643066406,
        220.68928527832031
      ],
      "type": "VEC3"
    },
    {
      "bufferView": 2,
      "byteOffset": 27048,
      "componentType": 5126,
      "count": 2254,
      "max": [
        0.9668118953704834,
        0.99462920427322388,
        0.99939167499542236
      ],
      "min": [
        -0.99933916330337524,
        -0.99915921688079834,
        -0.99891108274459839
      ],
      "type": "VEC3"
    },
    {
      "bufferView": 3,
      "componentType": 5126,
      "count": 2254,
      "max": [
        0.99981927871704102,
        0.94980686902999878,
        0.9980131983757019,
        1
      ],
      "min": [
        -0.74852222204208374,
        -0.90806883573532104,
        -0.60889929533004761,
        1
      ],
      "type": "VEC4"
    },
    {
      "bufferView": 1,
      "componentType": 5126,
      "count": 2254,
      "max": [
        0.96241998672485352,
        0.81441998481750488
      ],
      "min": [
        0.014899999834597111,
        0.31068998575210571
      ],
      "type": "VEC2"
    },
    {
      "bufferView": 0,
      "componentType": 5125,
      "count": 12096,
      "max": [
        2253
      ],
      "min": [
        0
      ],
      "type": "SCALAR"
    },
    {
      "bufferView": 2,
      "byteOffset": 54096,
      "componentType": 5126,
      "count": 26241,
      "max": [
        330.76617431640625,
        213.41552734375,
        209.92791748046875
      ],
      "min": [
        141.61160278320312,
        15.1400146484375,
        0
      ],
      "type": "VEC3"
    },
    {
      "bufferView": 2,
      "byteOffset": 368988,
      "componentType": 5126,
      "count": 26241,
      "max": [
        0.99998974800109863,
        0.99949866533279419,
        0.99777686595916748
      ],
      "min": [
        -0.99953818321228027,
        -0.99992901086807251,
        -0.99998915195465088
      ],
      "type": "VEC3"
    },
    {
      "bufferView": 3,
      "byteOffset": 36064,
      "componentType": 5126,
      "count": 26241,
      "max": [
        0.95682555437088013,
        0.99973642826080322,
        0.71127057075500488,
        1
      ],
      "min": [
        -0.99100041389465332,
        -0.99980229139328003,
        -0.99974715709686279,
        1
      ],
      "type": "VEC4"
    },
    {
      "bufferView": 1,
      "byteOffset": 18032,
      "componentType": 5126,
      "count": 26241,
      "max": [
        0.93972998857498169,
        0.79100000858306885
      ],
      "min": [
        0.62792998552322388,
        0.39381998777389526
      ],
      "type": "VEC2"
    },
    {
      "bufferView": 0,
      "byteOffset": 48384,
      "componentType": 5125,
      "count": 154944,
      "max": [
        26240
      ],
      "min": [
        0
      ],
      "type": "SCALAR"
    },
    {
      "bufferView": 2,
      "byteOffset": 683880,
      "componentType": 5126,
      "count": 36563,
      "max": [
        285.754150390625,
        188.14726257324219,
        447.30154418945312
      ],
      "min": [
        56.917098999023438,
        0,
        201.79603576660156
      ],
      "type": "VEC3"
    },
    {
      "bufferView": 2,
      "byteOffset": 1122636,
      "componentType": 5126,
      "count": 36563,
      "max": [
        0.99898308515548706,
        0.99991422891616821,
        0.99990123510360718
      ],
      "min": [
        -0.99998235702514648,
        -0.99999135732650757,
        -0.99878889322280884
      ],
      "type": "VEC3"
    },
    {
      "bufferView": 3,
      "byteOffset": 455920,
      "componentType": 5126,
      "count": 36563,
      "max": [
        0.99953192472457886,
        0.99999350309371948,
        0.96650481224060059,
        1
      ],
      "min": [
        -0.99999064207077026,
        -0.99967682361602783,
        -0.996726393699646,
        1
      ],
      "type": "VEC4"
    },
    {
      "bufferView": 1,
      "byteOffset": 227960,
      "componentType": 5126,
      "count": 36563,
      "max": [
        0.70276999473571777,
        0.99901998043060303
      ],
      "min": [
        0.27347001433372498,
        0.7044600248336792
      ],
      "type": "VEC2"
    },
    {
      "bufferView": 0,
      "byteOffset": 668160,
      "componentType": 5125,
      "count": 213408,
      "max": [
        36562
      ],
      "min": [
        0
      ],
      "type": "SCALAR"
    },
    {
      "bufferView": 2,
      "byteOffset": 1561392,
      "componentType": 5126,
      "count": 37093,
      "max": [
        221.59408569335938,
        220.07008361816406,
        231.73672485351562
      ],
      "min": [
        0,
        12.848861694335938,
        11.509552001953125
      ],
      "type": "VEC3"
    },
    {
      "bufferView": 2,
      "byteOffset": 2006508,
      "componentType": 5126,
      "count": 37093,
      "max": [
        0.98201888799667358,
        0.99999934434890747,
        0.99873870611190796
      ],
      "min": [
        -0.99999052286148071,
        -0.99923372268676758,
        -0.99996286630630493
      ],
      "type": "VEC3"
    },
    {
      "bufferView": 3,
      "byteOffset": 1040928,
      "componentType": 5126,
      "count": 37093,
      "max": [
        0.99998605251312256,
        0.99995452165603638,
        0.99977093935012817,
        1
      ],
      "min": [
        -0.99945515394210815,
        -0.95655417442321777,
        -0.95155757665634155,
        1
      ],
      "type": "VEC4"
    },
    {
      "bufferView": 1,
      "byteOffset": 520464,
      "componentType": 5126,
      "count": 37093,
      "max": [
        0.7941100001335144,
        0.50032997131347656
      ],
      "min": [
        0.42528000473976135,
        0.10812000185251236
      ],
      "type": "VEC2"
    },
    {
      "bufferView": 0,
      "byteOffset": 1521792,
      "componentType": 5125,
      "count": 219360,
      "max": [
        37092
      ],
      "min": [
        0
      ],
      "type": "SCALAR"
    },
    {
      "bufferView": 2,
      "byteOffset": 2451624,
      "componentType": 5126,
      "count": 65532,
      "max": [
        330.978759765625,
        238.95439147949219,
        496.56600952148438
      ],
      "min": [
        55.482452392578125,
        5.739501953125,
        191.81549072265625
      ],
      "type": "VEC3"
    },
    {
      "bufferView": 2,
      "byteOffset": 3238008,
      "componentType": 5126,
      "count": 65532,
      "max": [
        0.99999803304672241,
        0.99999916553497314,
        0.99997508525848389
      ],
      "min": [
        -0.9999467134475708,
        -0.99992263317108154,
        -0.99999552965164185
      ],
      "type": "VEC3"
    },
    {
      "bufferView": 3,
      "byteOffset": 1634416,
      "componentType": 5126,
      "count": 65532,
      "max": [
        0.99994909763336182,
        0.99997419118881226,
        0.99998313188552856,
        1
      ],
      "min": [
        -0.99998748302459717,
        -0.99989616870880127,
        -0.99997228384017944,
        -1
      ],
      "type": "VEC4"
    },
    {
      "bufferView": 1,
      "byteOffset": 817208,
      "componentType": 5126,
      "count": 65532,
      "max": [
        0.73918998241424561,
        0.78606998920440674
      ],
      "min": [
        0.0013200000394135714,
        0.00096999999368563294
      ],
      "type": "VEC2"
    },
    {
      "bufferView": 0,
      "byteOffset": 2399232,
      "componentType": 5125,
      "count": 332286,
      "max": [
        65531
      ],
      "min": [
        0
      ],
      "type": "SCALAR"
    },
    {
      "bufferView": 2,
      "byteOffset": 4024392,
      "componentType": 5126,
      "count": 65533,
      "max": [
        331.396484375,
        237.45320129394531,
        498.7652587890625
      ],
      "min": [
        52.384963989257812,
        22.988449096679688,
        206.68424987792969
      ],
      "type": "VEC3"
    },
    {
      "bufferView": 2,
      "byteOffset": 4810788,
      "componentType": 5126,
      "count": 65533,
      "max": [
        0.99995273351669312,
        0.99996960163116455,
        0.99998015165328979
      ],
      "min": [
        -0.99987190961837769,
        -0.99999046325683594,
        -0.99998921155929565
      ],
      "type": "VEC3"
    },
    {
      "bufferView": 3,
      "byteOffset": 2682928,
      "componentType": 5126,
      "count": 65533,
      "max": [
        0.99997240304946899,
        0.99994993209838867,
        0.99999076128005981,
        1
      ],
      "min": [
        -0.99998027086257935,
        -0.99998873472213745,
        -0.99998641014099121,
        -1
      ],
      "type": "VEC4"
    },
    {
      "bufferView": 1,
      "byteOffset": 1341464,
      "componentType": 5126,
      "count": 65533,
      "max": [
        0.73225998878479004,
        0.85329002141952515
      ],
      "min": [
        0.00096999999368563294,
        0.048560000956058502
      ],
      "type": "VEC2"
    },
    {
      "bufferView": 0,
      "byteOffset": 3728376,
      "componentType": 5125,
      "count": 336447,
      "max": [
        65532
      ],
      "min": [
        0
      ],
      "type": "SCALAR"
    },
    {
      "bufferView": 2,
      "byteOffset": 5597184,
      "componentType": 5126,
      "count": 39023,
      "max": [
        331.396484375,
        238.93473815917969,
        496.540283203125
      ],
      "min": [
        52.208389282226562,
        7.2531890869140625,
        191.29190063476562
      ],
      "type": "VEC3"
    },
    {
      "bufferView": 2,
      "byteOffset": 6065460,
      "componentType": 5126,
      "count": 39023,
      "max": [
        0.99963986873626709,
        0.99999916553497314,
        0.99998140335083008
      ],
      "min": [
        -0.9999467134475708,
        -0.99992263317108154,
        -0.99976134300231934
      ],
      "type": "VEC3"
    },
    {
      "bufferView": 3,
      "byteOffset": 3731456,
      "componentType": 5126,
      "count": 39023,
      "max": [
        0.99997240304946899,
        0.99996447563171387,
        0.99991238117218018,
        1
      ],
      "min": [
        -0.99995970726013184,
        -0.99952191114425659,
        -0.99969995021820068,
        -1
      ],
      "type": "VEC4"
    },
    {
      "bufferView": 1,
      "byteOffset": 1865728,
      "componentType": 5126,
      "count": 39023,
      "max": [
        0.74914997816085815,
        0.78570002317428589
      ],
      "min": [
        0.0045099998824298382,
        0.019079999998211861
      ],
      "type": "VEC2"
    },
    {
      "bufferView": 0,
      "byteOffset": 5074164,
      "componentType": 5125,
      "count": 162291,
      "max": [
        39022
      ],
      "min": [
        0
      ],
      "type": "SCALAR"
    }
  ],
  "asset": {
    "extras": {
      "author": "Musée Saint-Raymond (https://sketchfab.com/museesaintraymond)",
      "license": "CC0-1.0 (http://creativecommons.org/publicdomain/zero/1.0/)",
      "source": "https://sketchfab.com/3d-models/buste-dauguste-couronne-de-chene-6ccc01ad1cda47f3b2511ef6fbf07e0b",
      "title": "Buste d'Auguste couronné de chêne"
    },
    "generator": "Sketchfab-7.80.0",
    "version": "2.0"
  },
  "bufferViews": [
    {
      "buffer": 0,
      "byteLength": 5723328,
      "byteOffset": 0,
      "name": "floatBufferViews",
      "target": 34963
    },
    {
      "buffer": 0,
      "byteLength": 2177912,
      "byteOffset": 5723328,
      "byteStride": 8,
      "name": "floatBufferViews",
      "target": 34962
    },
    {
      "buffer": 0,
      "byteLength": 6533736,
      "byteOffset": 7901240,
      "byteStride": 12,
      "name": "floatBufferViews",
      "target": 34962
    },
    {
      "buffer": 0,
      "byteLength": 4355824,
      "byteOffset": 14434976,
      "byteStride": 16,
      "name": "floatBufferViews",
      "target": 34962
    }
  ],
  "buffers": [
    {
      "byteLength": 18790800,
      "uri": "scene.bin"
    }
  ],
  "images": [
    {
      "uri": "textures/defaultMat_baseColor.jpeg"
    },
    {
      "uri": "textures/defaultMat_metallicRoughness.png"
    },
    {
      "uri": "textures/defaultMat_normal.jpeg"
    }
  ],
  "materials": [
    {
      "doubleSided": true,
      "emissiveFactor": [
        0,
        0,
        0
      ],
      "name": "defaultMat",
      "normalTexture": {
        "index": 2,
        "scale": 1,
        "texCoord": 0
      },
      "occlusionTexture": {
        "index": 1,
        "strength": 1,
        "texCoord": 0
      },
      "pbrMetallicRoughness": {
        "baseColorFactor": [
          1,
          1,
          1,
          1
        ],
        "baseColorTexture": {
          "index": 0,
          "texCoord": 0
        },
        "metallicFactor": 0,
        "metallicRoughnessTexture": {
          "index": 1,
          "texCoord": 0
        },
        "roughnessFactor": 0.5531631097560975
      }
    }
  ],
  "meshes": [
    {
      "primitives": [
        {
          "attributes": {
            "NORMAL": 1,
            "POSITION": 0,
            "TANGENT": 2,
            "TEXCOORD_0": 3
          },
          "indices": 4,
          "material": 0,
          "mode": 4
        }
      ]
    },
    {
      "primitives": [
        {
          "attributes": {
            "NORMAL": 6,
            "POSITION": 5,
            "TANGENT": 7,
            "TEXCOORD_0": 8
          },
          "indices": 9,
          "material": 0,
          "mode": 4
        }
      ]
    },
    {
      "primitives": [
        {
          "attributes": {
            "NORMAL": 11,
            "POSITION": 10,
            "TANGENT": 12,
            "TEXCOORD_0": 13
          },
          "indices": 14,
          "material": 0,
          "mode": 4
        }
      ]
    },
    {
      "primitives": [
        {
          "attributes": {
            "NORMAL": 16,
            "POSITION": 15,
            "TANGENT": 17,
            "TEXCOORD_0": 18
          },
          "indices": 19,
          "material": 0,
          "mode": 4
        }
      ]
    },
    {
      "primitives": [
        {
          "attributes": {
            "NORMAL": 21,
            "POSITION": 20,
            "TANGENT": 22,
            "TEXCOORD_0": 23
          },
          "indices": 24,
          "material": 0,
          "mode": 4
        }
      ]
    },
    {
      "primitives": [
        {
          "attributes": {
            "NORMAL": 26,
            "POSITION": 25,
            "TANGENT": 27,
            "TEXCOORD_0": 28
          },
          "indices": 29,
          "material": 0,
          "mode": 4
        }
      ]
    },
    {
      "primitives": [
        {
          "attributes": {
            "NORMAL": 31,
            "POSITION": 30,
            "TANGENT": 32,
            "TEXCOORD_0": 33
          },
          "indices": 34,
          "material": 0,
          "mode": 4
        }
      ]
    }
  ],
  "nodes": [
    {
      "children": [
        1
      ],
      "name": "RootNode (gltf orientation matrix)",
      "rotation": [
        -0.70710678118654746,
        -0,
        -0,
        0.70710678118654757
      ]
    },
    {
      "children": [
        2
      ],
      "name": "RootNode (model correction matrix)"
    },
    {
      "children": [
        3
      ],
      "matrix": [
        1,
        0,
        0,
        0,
        0,
        1,
        0,
        0,
        0,
        0,
        1,
        0,
        -236.36442565917969,
        -143.91879272460938,
        -264.457763671875,
        1
      ],
      "name": "zbrush_concat.osgb.cleaner.gles"
    },
    {
      "children": [
        4,
        5,
        6,
        7,
        8,
        9,
        10
      ],
      "name": "/sketchfab-data/processing/d552f38e26e4402ab4a1c0febf94c337/preprocess/SubTool-1-11412745.OBJ"
    },
    {
      "mesh": 0,
      "name": ""
    },
    {
      "mesh": 1,
      "name": ""
    },
    {
      "mesh": 2,
      "name": ""
    },
    {
      "mesh": 3,
      "name": ""
    },
    {
      "mesh": 4,
      "name": ""
    },
    {
      "mesh": 5,
      "name": ""
    },
    {
      "mesh": 6,
      "name": ""
    }
  ],
  "samplers": [
    {
      "magFilter": 9729,
      "minFilter": 9987,
      "wrapS": 10497,
      "wrapT": 10497
    }
  ],
  "scene": 0,
  "scenes": [
    {
      "name": "OSG_Scene",
      "nodes": [
        0
      ]
    }
  ],
  "textures": [
    {
      "sampler": 0,
      "source": 0
    },
    {
      "sampler": 0,
      "source": 1
    },
    {
      "sampler": 0,
      "source": 2
    }
  ]
}

